HIERARCHY
ROOT root
{
	OFFSET 0.000000 0.000000 0.000000
	CHANNELS 6 Xposition Yposition Zposition Zrotation Yrotation Xrotation
	JOINT lhip
	{
		OFFSET 0.058581 -0.082280 -0.017664
		CHANNELS 3 Zrotation Yrotation Xrotation
		JOINT lknee
		{
			OFFSET 0.043451 -0.386469 0.008037
			CHANNELS 3 Zrotation Yrotation Xrotation
			JOINT lankle
			{
				OFFSET -0.014790 -0.426874 -0.037428
				CHANNELS 3 Zrotation Yrotation Xrotation
				JOINT ltoe
				{
					OFFSET 0.041054 -0.060286 0.122042
					CHANNELS 3 Zrotation Yrotation Xrotation
					End Site
					{
						OFFSET 0.000000 0.000000 0.000000
					}
				}
			}
		}
	}
	JOINT rhip
	{
		OFFSET -0.060310 -0.090513 -0.013543
		CHANNELS 3 Zrotation Yrotation Xrotation
		JOINT rknee
		{
			OFFSET -0.043257 -0.383688 -0.004843
			CHANNELS 3 Zrotation Yrotation Xrotation
			JOINT rankle
			{
				OFFSET 0.019056 -0.420046 -0.034562
				CHANNELS 3 Zrotation Yrotation Xrotation
				JOINT rtoe
				{
					OFFSET -0.034840 -0.062106 0.130323
					CHANNELS 3 Zrotation Yrotation Xrotation
					End Site
					{
						OFFSET 0.000000 0.000000 0.000000
					}
				}
			}
		}
	}
	JOINT lowerback
	{
		OFFSET 0.004439 0.124404 -0.038385
		CHANNELS 3 Zrotation Yrotation Xrotation
		JOINT upperback
		{
			OFFSET 0.004488 0.137956 0.026820
			CHANNELS 3 Zrotation Yrotation Xrotation
			JOINT chest
			{
				OFFSET -0.002265 0.056032 0.002855
				CHANNELS 3 Zrotation Yrotation Xrotation
				JOINT lowerneck
				{
					OFFSET -0.013390 0.211636 -0.033468
					CHANNELS 3 Zrotation Yrotation Xrotation
					JOINT upperneck
					{
						OFFSET 0.010113 0.088937 0.050410
						CHANNELS 3 Zrotation Yrotation Xrotation
						End Site
						{
							OFFSET 0.000000 0.000000 0.000000
						}
					}
				}
				JOINT lclavicle
				{
					OFFSET 0.071702 0.114000 -0.018898
					CHANNELS 3 Zrotation Yrotation Xrotation
					JOINT lshoulder
					{
						OFFSET 0.122921 0.045205 -0.019046
						CHANNELS 3 Zrotation Yrotation Xrotation
						JOINT lelbow
						{
							OFFSET 0.255332 -0.015649 -0.022946
							CHANNELS 3 Zrotation Yrotation Xrotation
							JOINT lwrist
							{
								OFFSET 0.265709 0.012698 -0.007375
								CHANNELS 3 Zrotation Yrotation Xrotation
								End Site
								{
									OFFSET 0.000000 0.000000 0.000000
								}
							}
						}
					}
				}
				JOINT rclavicle
				{
					OFFSET -0.082954 0.112472 -0.023707
					CHANNELS 3 Zrotation Yrotation Xrotation
					JOINT rshoulder
					{
						OFFSET -0.113228 0.046853 -0.008472
						CHANNELS 3 Zrotation Yrotation Xrotation
						JOINT relbow
						{
							OFFSET -0.260127 -0.014369 -0.031269
							CHANNELS 3 Zrotation Yrotation Xrotation
							JOINT rwrist
							{
								OFFSET -0.269108 0.006794 -0.006027
								CHANNELS 3 Zrotation Yrotation Xrotation
								End Site
								{
									OFFSET 0.000000 0.000000 0.000000
								}
							}
						}
					}
				}
			}
		}
	}
}
MOTION
Frames: 11
Frame Time: 0.033333
0.253929 0.205428 0.985384 89.537029 -0.605503 93.462474 5.595426 5.592511 -18.468325 -3.996464 1.427874 17.821665 -0.955919 5.637127 -4.007427 0.000000 -0.000000 0.000000 -8.095972 -5.289315 -21.433879 -0.608155 -2.388992 22.795885 6.303295 -4.854379 -6.211380 0.000000 -0.000000 0.000000 0.447624 1.827691 29.272259 0.653402 -3.506055 0.691619 2.529522 2.535211 -0.866643 -3.221786 6.363335 -16.703268 5.276866 -4.651467 -12.028105 -1.183757 -34.521594 -10.172798 -39.941517 -46.815711 7.991592 8.890644 -19.676552 11.655622 20.795880 -16.844424 -1.912575 6.610656 34.705686 0.497826 25.576483 45.722059 -5.889906 -13.657898 22.197845 3.563933 -24.839250 17.806618 -2.807154 
0.247934 0.206239 0.979159 89.356297 -0.864867 93.214997 5.455235 5.688721 -19.789520 -4.001403 1.844178 20.037768 -0.794201 5.328945 -4.569751 0.000000 -0.000000 0.000000 -8.420587 -5.085774 -23.312748 -0.899981 -2.324756 25.825884 6.101160 -4.493629 -7.008574 0.000000 -0.000000 0.000000 0.280514 1.697945 31.075179 0.384427 -3.631054 0.854575 2.534745 2.528848 -1.125775 -3.230494 6.099288 -17.357865 5.783714 -4.040705 -12.230333 -2.076299 -35.326907 -10.185833 -42.177870 -48.105478 6.850079 12.289012 -18.409086 7.185000 26.110838 -15.842969 -0.395634 7.030236 35.418066 0.496139 27.643328 47.631007 -6.687949 -15.247829 21.760311 0.451125 -25.451562 18.542131 -2.311000 
0.244190 0.207455 0.974400 89.412884 -1.217118 92.721839 5.259776 5.498275 -20.327354 -4.085320 2.340997 21.543292 -0.533398 4.986376 -5.042215 0.000000 -0.000000 0.000000 -8.937682 -4.846201 -24.349532 -1.155875 -2.360857 28.237672 5.862140 -4.304704 -7.744079 0.000000 -0.000000 0.000000 0.452334 1.451981 32.233610 -0.027197 -3.604586 1.404199 2.229705 2.393590 -1.758001 -3.025315 5.688672 -16.996132 6.040451 -3.466361 -12.327216 -3.626040 -35.028119 -9.279886 -44.319536 -48.322858 6.357179 13.378616 -21.208691 3.764482 25.190580 -15.539778 -2.413518 7.094303 35.204971 0.795806 31.366985 47.577765 -4.368533 -16.658875 24.617927 -1.862178 -24.575759 18.970686 -1.712771 
0.243817 0.208605 0.971147 89.854962 -1.671034 91.859821 4.832673 5.318453 -20.007351 -4.345722 2.174806 22.535934 -0.114260 5.097764 -5.740217 0.000000 -0.000000 0.000000 -9.654965 -5.033428 -24.231657 -1.152688 -2.327344 29.915340 5.642888 -4.378359 -8.715443 0.000000 -0.000000 0.000000 0.478004 1.327559 32.568696 -0.068912 -3.703655 1.536668 2.130269 1.989187 -1.661369 -2.829550 5.293145 -15.679486 5.870435 -2.924266 -12.161890 -5.443525 -34.038164 -7.414854 -45.076231 -45.759748 7.326600 13.102595 -28.416123 3.174373 26.390943 -15.403695 -2.934627 7.870052 34.507593 1.740130 33.864556 45.692488 -1.251398 -16.043520 30.184430 -2.299481 -27.001519 19.116303 -2.662939 
0.245982 0.209782 0.969925 89.923436 -1.860734 90.820357 4.665283 5.546727 -18.852033 -4.751435 1.661563 22.929564 0.269804 5.516508 -6.438281 0.000000 -0.000000 0.000000 -10.020066 -4.755973 -23.380443 -1.075859 -2.008261 30.866687 5.516961 -4.802455 -9.629576 0.000000 -0.000000 0.000000 0.758371 1.232557 32.153713 -0.145962 -3.545049 2.122780 1.792174 1.748038 -1.748759 -2.667229 4.568644 -14.539788 5.768342 -2.503426 -11.338614 -7.256183 -32.422720 -5.136462 -45.451025 -41.131280 9.114070 13.232282 -38.404593 4.931171 30.296518 -15.698998 -3.078434 8.603995 33.546470 2.757190 37.698175 42.268036 2.790875 -17.344991 37.955326 -4.209421 -30.701564 19.455392 -4.676825 
0.251294 0.209333 0.970848 90.522465 -2.047856 89.693467 4.484287 5.287162 -17.236759 -4.869852 1.168955 22.981314 0.421868 5.630737 -7.039236 0.000000 -0.000000 0.000000 -10.243445 -5.027639 -21.528003 -1.191871 -1.987557 30.919357 5.190879 -4.834651 -10.468630 0.000000 -0.000000 0.000000 0.661609 1.400561 30.773931 0.129116 -3.685399 3.939189 1.576128 1.335748 -2.716587 -2.000154 4.478446 -13.324270 5.545735 -2.666872 -10.648357 -9.938103 -29.855167 -2.374978 -45.102922 -35.913546 9.767499 13.072475 -50.051855 7.736291 32.565527 -15.845557 -3.893212 11.206876 31.343872 4.281457 41.399332 38.930919 5.687288 -19.390392 46.602643 -4.891330 -32.322151 19.564561 -5.602021 
0.257564 0.208929 0.972920 90.400014 -2.091057 88.569218 4.464061 5.167130 -15.121533 -4.924770 0.882315 22.465102 0.874469 6.019782 -7.610744 0.000000 -0.000000 0.000000 -10.248447 -4.821952 -19.562197 -1.303062 -1.819232 30.560696 4.977995 -4.799718 -11.079516 0.000000 -0.000000 0.000000 0.257128 1.660765 29.034028 0.350917 -3.580773 4.991512 1.374750 1.560052 -3.009494 -1.207047 4.220769 -11.955527 5.595750 -2.917128 -9.392109 -11.841824 -26.681323 -0.549819 -45.255636 -31.226108 10.439042 12.028871 -60.671066 10.162790 33.065176 -15.560227 -4.475479 13.220666 28.846640 5.164451 45.258938 34.897752 8.422704 -23.211568 55.167064 -7.816907 -31.626790 19.677009 -5.473642 
0.264476 0.208349 0.975761 90.215524 -2.011771 87.739923 4.581101 4.873968 -13.130445 -4.957736 0.715298 21.645470 1.271800 6.457709 -7.999484 0.000000 -0.000000 0.000000 -10.109499 -4.566391 -17.681438 -1.255211 -1.607186 29.769618 4.778095 -4.907287 -11.536812 0.000000 -0.000000 0.000000 -0.189024 2.000638 26.829061 0.642686 -3.301974 5.483931 1.314074 1.860078 -3.011911 -0.448372 3.886498 -10.557171 5.398803 -3.394812 -7.747308 -12.869086 -23.265933 0.679996 -45.705474 -27.462764 11.498900 9.661794 -69.290364 13.272984 34.266891 -15.310404 -5.112980 14.969634 26.236963 6.152012 47.260721 30.719776 10.862607 -27.550611 63.149486 -11.348938 -34.292282 19.912858 -6.924804 
0.271982 0.207466 0.979048 90.127815 -1.883242 86.965275 4.699588 4.557388 -11.093019 -4.898677 0.498407 20.624046 1.564238 6.886766 -8.301798 0.000000 -0.000000 0.000000 -9.876573 -4.362997 -15.659692 -1.269976 -1.427864 28.668025 4.675894 -5.031603 -11.816388 0.000000 -0.000000 0.000000 -0.749747 2.368553 24.448059 1.046452 -2.968772 5.645243 1.387102 2.199586 -2.714032 0.041900 3.480748 -9.127394 5.356508 -3.806298 -6.264537 -13.296155 -20.077006 1.585159 -45.709350 -24.339383 12.224094 5.278443 -76.658121 18.414565 34.840972 -15.208620 -5.835185 16.380338 23.419817 6.658823 47.681681 26.896483 11.718355 -32.229834 70.449344 -14.834761 -34.726200 20.570524 -7.487779 
0.279570 0.206631 0.982727 90.371912 -1.688247 86.287394 4.872519 4.282454 -9.129896 -4.889616 0.054237 19.375464 1.690020 7.183586 -8.419508 0.000000 -0.000000 0.000000 -9.681769 -4.260637 -13.496315 -1.214271 -1.488791 27.248768 4.709776 -5.241775 -11.926775 0.000000 -0.000000 0.000000 -1.029674 2.649415 22.124078 1.418910 -2.675050 5.693106 1.375069 2.243944 -2.553308 0.334677 3.085335 -7.651530 5.255513 -4.055624 -5.181245 -13.303264 -17.365958 2.096051 -45.104129 -21.703246 12.721426 -3.398385 -82.591181 27.534274 35.416020 -15.562644 -5.944190 16.812831 20.996614 6.592331 48.782102 23.169940 13.180811 -44.189110 76.332130 -26.306295 -35.606618 20.941716 -8.236067 
0.286622 0.206293 0.986134 90.719177 -1.391127 85.717678 5.115917 4.028980 -7.348870 -4.870875 -0.511865 18.117734 1.649718 7.474972 -8.449715 0.000000 -0.000000 0.000000 -9.456344 -4.112515 -11.372782 -1.077112 -1.644639 25.652783 4.744759 -5.574301 -11.871482 0.000000 -0.000000 0.000000 -0.991783 2.750163 19.902558 1.533388 -2.488725 5.640674 1.260026 2.254573 -2.307666 0.830188 3.087076 -6.215293 5.027767 -4.629370 -4.584261 -12.756805 -14.903014 2.296865 -44.451893 -19.770275 13.108214 -38.689015 -87.125266 62.809735 36.332412 -15.425187 -6.005251 16.767993 18.603461 6.380310 49.910880 20.390310 14.756832 -64.640828 80.852642 -46.598548 -39.832833 19.819217 -10.280192 
